<svg width="479" height="32" viewBox="0 0 479 32" fill="none" xmlns="http://www.w3.org/2000/svg">
<path d="M0.432423 28.6801C0.432423 27.8957 1.08106 27.1113 1.8378 26.2288C2.05836 25.9475 2.55076 25.6807 3.27969 25.4476C4.00863 25.2145 4.95602 25.0209 6.05393 24.8806C16.8645 23.8756 26.8103 22.9441 37.2965 22.0371C43.7829 21.4733 50.5936 21.1056 56.8637 20.4683C71.2819 19.2054 86.1454 18.2214 101.295 17.5268L113.727 16.7423C128.646 15.8108 143.673 14.8548 158.916 14.1195C162.267 13.9479 165.726 13.8253 168.97 13.5802C191.239 12.0113 214.05 10.9328 236.644 9.60907C248.319 8.92271 260.103 8.26086 271.886 7.67255C287.987 6.9918 303.876 6.07473 319.453 4.9271C330.34 4.30501 341.389 3.83834 352.533 3.52987C360.425 3.52987 367.668 2.69642 375.344 2.52483C383.105 2.43168 390.832 2.22699 398.478 1.91201C408.599 1.40027 418.921 1.12105 429.289 1.07857C437.081 1.00683 444.827 0.768815 452.423 0.367693C457.535 0.167542 462.699 0.0447069 467.882 0C469.612 0 471.342 0 473.071 0C474.324 0.035366 475.509 0.147697 476.5 0.324843C477.491 0.501988 478.249 0.737201 478.693 1.00503C478.976 1.18746 479.065 1.38251 478.953 1.57423C478.84 1.76595 478.529 1.94889 478.044 2.10811C474.022 3.11926 470.738 4.2695 468.315 5.51541C467.533 5.86767 466.387 6.17194 464.976 6.40238C463.564 6.63283 461.928 6.78264 460.207 6.83911C458.554 6.95018 456.848 7.01602 455.126 7.03521C445.613 7.03521 436.099 7.23132 426.694 7.28034C418.903 7.25057 411.128 7.4483 403.559 7.86865C400.198 8.06807 396.758 8.19124 393.289 8.23635C383.798 8.34974 374.362 8.63665 365.074 9.0943C356.749 9.56005 348.101 9.70713 339.669 10.2464C332.157 10.6866 324.541 11.0304 316.858 11.276C309.183 11.5701 301.399 11.7172 293.832 12.0604C286.364 12.5486 278.736 12.901 271.022 13.1144C253.292 13.9969 235.455 14.7078 217.833 15.6883C203.419 16.489 189.005 17.2326 174.591 17.919C159.456 18.6543 144.538 19.6594 129.619 20.6889L99.8899 22.748C99.5294 22.7881 99.2149 22.8466 98.971 22.9189C98.7271 22.9912 98.5606 23.0753 98.4845 23.1647C98.4845 23.5324 99.4574 23.8021 101.511 23.7776C116.146 23.3929 130.612 22.7287 144.754 21.792C159.019 21.0045 173.452 20.3827 187.996 19.929C201.726 19.4878 215.023 18.6053 228.752 18.3112C240.211 17.4042 252.643 17.5022 264.211 16.6198C268.457 16.435 272.756 16.3203 277.075 16.2766C283.886 16.007 290.481 15.5657 297.291 15.3451C304.102 15.1245 311.237 15.0755 318.156 15.0755C320.704 14.9819 323.23 14.8591 325.723 14.7078C329.074 14.5607 332.426 14.3646 335.885 14.2665C346.256 14.2167 356.579 13.9292 366.695 13.4086C375.776 12.7467 385.614 12.9183 394.587 12.1829C397.067 11.9997 399.654 11.9006 402.262 11.8888C420.337 11.5628 438.226 10.8321 455.666 9.70712C456.472 9.64361 457.348 9.64361 458.153 9.70712C459.626 9.883 461.004 10.0969 462.261 10.3445C463.558 10.6141 462.261 11.6436 460.964 11.9378C458.903 12.2819 456.694 12.5776 454.369 12.8203C452.741 12.954 451.02 13.0204 449.288 13.0164L425.937 13.188C422.308 13.1646 418.679 13.2387 415.127 13.4086C407.559 13.8743 399.776 13.9234 392.1 14.242C378.592 14.8947 364.903 15.337 351.128 15.5657C348.562 15.6368 346.03 15.7598 343.561 15.9334C341.946 16.0658 340.282 16.1643 338.588 16.2276C323.02 16.3746 307.778 17.0855 292.426 17.5513C283.807 17.6462 275.273 17.9838 267.022 18.5563C257.54 18.7227 248.157 19.1087 239.022 19.7084C215.239 20.6644 191.564 21.792 168.213 23.2628C159.889 23.7776 151.24 23.9001 142.808 24.3168C132.754 24.8316 122.592 25.3464 112.646 25.9347C102.701 26.523 92.4305 26.9642 82.3767 27.5525C61.396 28.6939 40.6849 30.0766 20.3239 31.6952C16.5509 32.0035 12.4852 32.0796 8.54037 31.9158C6.36706 31.7825 4.40769 31.5108 2.89416 31.1329C1.38062 30.7549 0.376283 30.2866 0 29.7832C0.108106 29.4646 0.324317 29.0723 0.432423 28.6801ZM80.2146 24.6845L73.4039 24.8806C71.3499 24.8806 69.8364 25.1013 70.1607 25.2483C70.485 25.3954 72.6472 25.567 74.3769 25.4935C75.5801 25.4546 76.7329 25.358 77.7583 25.21C78.7836 25.0621 79.6579 24.8662 80.3227 24.6355C82.3767 24.6355 84.755 24.6355 86.1604 24.1943C85.5118 24.1943 84.755 24.0227 84.2145 24.0472C83.3931 24.0783 82.6145 24.152 81.9394 24.2625C81.2643 24.3731 80.711 24.5175 80.3227 24.6845H80.2146ZM454.693 3.28473C454.693 3.13766 454.693 2.94155 453.721 2.86801C452.622 2.71129 451.394 2.60661 450.112 2.56027C448.83 2.51393 447.52 2.52689 446.261 2.59837C436.095 3.05521 425.799 3.35009 415.451 3.48084C403.364 3.48204 391.319 3.80287 379.56 4.43684C377.049 4.57956 374.473 4.65363 371.884 4.65746C363.258 4.68805 354.685 4.96813 346.371 5.4909C338.155 6.0547 329.399 6.07921 321.075 6.66752C312.75 7.25583 304.534 7.72157 296.21 8.23635C288.064 8.88868 279.611 9.32465 271.022 9.53553C265.073 9.77315 259.268 10.1681 253.725 10.7122C251.13 10.8837 250.914 11.1534 252.86 11.3495C253.677 11.3933 254.529 11.3933 255.346 11.3495C267.346 11.0553 279.021 10.369 290.805 9.82969C305.183 9.19235 319.561 8.65307 334.047 8.04024C348.533 7.42742 361.29 7.03522 374.803 6.37337C382.339 5.99204 390.008 5.76236 397.722 5.687C401.337 5.6778 404.947 5.6205 408.532 5.51541C415.343 5.27028 422.045 4.9271 428.856 4.70649C435.667 4.48587 442.586 4.46136 449.504 4.28977C451.158 4.20383 452.708 4.03645 454.045 3.7995C454.261 3.70145 454.369 3.45633 454.802 3.28473H454.693ZM186.05 14.9284C187.996 14.9284 189.293 14.9284 189.293 14.6342C189.293 14.3401 188.104 14.4626 187.348 14.4381C186.591 14.4136 184.104 14.4381 184.104 14.7323C184.104 15.0264 185.402 14.8548 186.05 14.9284ZM232.32 12.4771C233.811 12.5191 235.318 12.4316 236.536 12.232C236.165 12.0851 235.601 11.9682 234.922 11.8978C234.243 11.8275 233.484 11.8072 232.752 11.8398C230.698 11.8398 229.833 12.0359 230.482 12.281C231.13 12.5261 231.671 12.6242 232.32 12.6242V12.4771ZM53.1881 26.3269L54.8097 26.523V26.2779L53.1881 26.3269ZM91.1333 20.3948L89.0793 20.5418L91.1333 20.6889V20.3948ZM111.89 19.1691L109.619 19.3407L111.781 19.4878L111.89 19.1691ZM168.861 15.9334V15.6638H166.807L168.861 15.9334Z" fill="black"/>
</svg>
