<svg width="336" height="200" viewBox="0 0 336 200" fill="none" xmlns="http://www.w3.org/2000/svg">
<rect x="126" y="162" width="42" height="38" fill="#BF697F"/>
<rect x="135" y="152" width="24" height="10" fill="#BF697F"/>
<rect x="168" y="162" width="42" height="38" fill="#BF697F"/>
<rect x="177" y="152" width="24" height="10" fill="#BF697F"/>
<rect x="126" y="162" width="42" height="38" fill="#BF697F"/>
<rect x="135" y="152" width="24" height="10" fill="#BF697F"/>
<rect x="168" y="162" width="42" height="38" fill="#BF697F"/>
<rect x="177" y="152" width="24" height="10" fill="#BF697F"/>
<rect x="84" y="124" width="42" height="38" fill="#ECE6A1"/>
<rect x="93" y="114" width="24" height="10" fill="#ECE6A1"/>
<rect x="126" y="124" width="42" height="38" fill="#ECE6A1"/>
<rect x="135" y="114" width="24" height="10" fill="#ECE6A1"/>
<rect x="168" y="48" width="42" height="38" fill="#ECE6A1"/>
<rect x="177" y="38" width="24" height="10" fill="#ECE6A1"/>
<rect x="210" y="48" width="42" height="38" fill="#ECE6A1"/>
<rect x="219" y="38" width="24" height="10" fill="#ECE6A1"/>
<rect x="168" y="124" width="42" height="38" fill="#6EAC9A"/>
<rect x="177" y="114" width="24" height="10" fill="#6EAC9A"/>
<rect x="210" y="124" width="42" height="38" fill="#6EAC9A"/>
<rect x="219" y="114" width="24" height="10" fill="#6EAC9A"/>
<rect x="84" y="48" width="42" height="38" fill="#6EAC9A"/>
<rect x="93" y="38" width="24" height="10" fill="#6EAC9A"/>
<rect x="126" y="48" width="42" height="38" fill="#6EAC9A"/>
<rect x="135" y="38" width="24" height="10" fill="#6EAC9A"/>
<rect x="42" y="86" width="42" height="38" fill="#AF8CD8"/>
<rect x="51" y="76" width="24" height="10" fill="#AF8CD8"/>
<rect x="84" y="86" width="42" height="38" fill="#AF8CD8"/>
<rect x="93" y="76" width="24" height="10" fill="#AF8CD8"/>
<rect x="210" y="86" width="42" height="38" fill="#AF8CD8"/>
<rect x="219" y="76" width="24" height="10" fill="#AF8CD8"/>
<rect x="252" y="86" width="42" height="38" fill="#AF8CD8"/>
<rect x="261" y="76" width="24" height="10" fill="#AF8CD8"/>
<rect x="126" y="86" width="42" height="38" fill="#BF697F"/>
<rect x="135" y="76" width="24" height="10" fill="#BF697F"/>
<rect x="168" y="86" width="42" height="38" fill="#BF697F"/>
<rect x="177" y="76" width="24" height="10" fill="#BF697F"/>
<rect x="252" y="48" width="42" height="38" fill="#BF697F"/>
<rect x="261" y="38" width="24" height="10" fill="#BF697F"/>
<rect x="294" y="48" width="42" height="38" fill="#BF697F"/>
<rect x="303" y="38" width="24" height="10" fill="#BF697F"/>
<rect y="48" width="42" height="38" fill="#ECE6A1"/>
<rect x="9" y="38" width="24" height="10" fill="#ECE6A1"/>
<rect x="42" y="48" width="42" height="38" fill="#ECE6A1"/>
<rect x="51" y="38" width="24" height="10" fill="#ECE6A1"/>
<rect x="42" y="10" width="42" height="38" fill="#AF8CD8"/>
<rect x="51" width="24" height="10" fill="#AF8CD8"/>
<rect x="84" y="10" width="42" height="38" fill="#AF8CD8"/>
<rect x="93" width="24" height="10" fill="#AF8CD8"/>
<rect x="210" y="10" width="42" height="38" fill="#6EAC9A"/>
<rect x="219" width="24" height="10" fill="#6EAC9A"/>
<rect x="252" y="10" width="42" height="38" fill="#6EAC9A"/>
<rect x="261" width="24" height="10" fill="#6EAC9A"/>
</svg>
