<?xml version="1.0" ?><!DOCTYPE svg  PUBLIC '-//W3C//DTD SVG 1.1//EN'  'http://www.w3.org/Graphics/SVG/1.1/DTD/svg11.dtd'><svg enable-background="new 0 0 91 91" height="91px" id="Layer_1" version="1.1" viewBox="0 0 91 91" width="91px" xml:space="preserve" xmlns="http://www.w3.org/2000/svg" xmlns:xlink="http://www.w3.org/1999/xlink"><g><path d="M45.166,65.259c-1.388,0-2.513,1.125-2.513,2.513V82.32l-4.763-4.165c-1.045-0.912-2.631-0.806-3.545,0.237   c-0.914,1.045-0.808,2.632,0.237,3.546l8.929,7.81c0.477,0.416,1.066,0.621,1.653,0.621c0.001,0,0.001,0,0.002,0l0,0   c0.587,0,1.177-0.205,1.653-0.622l8.925-7.81c1.045-0.914,1.15-2.501,0.236-3.545c-0.912-1.045-2.5-1.149-3.545-0.236l-4.758,4.163   V67.771C47.679,66.384,46.554,65.259,45.166,65.259z"/><path d="M66.646,45.391V16.598c0-8.821-7.176-15.997-15.996-15.997H39.68c-8.822,0-15.999,7.176-15.999,15.997v28.793   c0,8.821,7.177,15.998,15.999,15.998h10.97C59.47,61.389,66.646,54.212,66.646,45.391z M61.62,45.391   c0,6.051-4.921,10.973-10.971,10.973H39.68c-6.051,0-10.974-4.922-10.974-10.973V16.598c0-6.05,4.923-10.972,10.974-10.972h10.97   c6.05,0,10.971,4.922,10.971,10.972V45.391z"/><path d="M45.166,14.85c-1.388,0-2.513,1.125-2.513,2.513v7.466c0,1.388,1.125,2.513,2.513,2.513s2.513-1.125,2.513-2.513v-7.466   C47.679,15.975,46.554,14.85,45.166,14.85z"/></g></svg>